<svg width="747" height="754" fill="none" xmlns="http://www.w3.org/2000/svg">
  <path d="M372.649 753.258C164.629 752.507-1.788 582.035.015 373.113 1.667 167.947 167.332-2.525 378.056.028c205.918 2.403 370.832 172.425 368.429 381.046-2.253 204.265-166.416 372.034-373.836 372.184ZM319.48 557.553c-2.403-.45-3.455-.6-4.656-.751-28.687-4.055-55.572-12.616-79.604-29.738-25.683-18.324-41.454-42.956-47.912-73.145-6.609-30.79-4.055-61.881.751-92.671 3.304-21.177 10.514-41.153 27.035-56.323 2.403-2.253 2.253-4.055 1.052-7.059-9.012-24.933-7.961-50.015-.451-75.098 1.502-4.956 3.905-7.059 9.162-5.107 6.308 2.253 12.767 4.206 18.624 7.66 16.071 9.463 28.387 22.53 39.201 37.399 2.704 3.605 4.506 4.205 8.261 1.652 9.312-6.458 20.276-8.411 30.94-10.363 25.834-4.807 51.817-3.905 77.801-2.704 15.17.751 30.189 3.455 44.608 8.862 4.506 1.652 8.561 7.509 12.767 5.256 4.205-2.102 6.759-7.81 10.063-11.715 13.217-15.921 28.387-29.138 48.813-35.596 6.609-2.103 9.613-1.051 11.866 6.008 7.51 24.482 8.561 48.663-.901 72.694-1.502 3.755-1.202 6.459 1.952 9.312 12.466 11.565 19.676 26.435 23.431 42.806 6.458 27.936 8.11 56.473 6.308 85.011-1.802 27.335-10.664 52.268-28.988 73.295-24.632 28.237-56.774 42.205-92.971 48.363a1145.63 1145.63 0 0 1-13.067 2.253c10.664 16.671 15.771 33.944 15.921 52.568.15 21.478 0 43.106 0 64.584v42.055c22.83-2.253 65.485-17.423 95.224-33.644 138.63-75.548 208.621-231.601 173.325-386.152-41.754-183.839-223.641-299.94-407.48-260.138C126.93 74.826 6.773 242.143 32.907 425.982c12.166 85.461 51.367 156.954 116.251 213.878 42.806 37.549 92.371 62.632 147.943 75.549 4.356 1.051 6.308.751 6.158-4.506a1087.155 1087.155 0 0 1 0-44.308c0-4.956-.901-6.458-6.308-5.407-9.763 1.953-19.826 3.004-29.889 2.403-31.842-1.652-57.675-14.268-75.849-41.304-6.158-9.161-9.612-19.825-15.47-28.987-10.363-16.071-19.525-33.043-36.798-43.407-2.253-1.351-4.956-3.454-3.605-6.608 1.202-3.004 4.506-2.554 7.21-2.854 19.225-1.502 34.995 5.707 48.062 19.525 6.909 7.36 11.265 16.522 17.273 24.482 19.976 26.585 58.125 38 89.366 26.735 4.506-1.652 5.858-3.905 6.458-8.561 1.803-15.771 4.807-31.241 15.771-45.059Z" fill="#000"/>
</svg>
